<svg xmlns="http://www.w3.org/2000/svg">
  <defs>
    <symbol id="search" viewBox="0 0 24 24"><circle cx="11" cy="11" r="8"/><path d="m21 21-4.3-4.3"/></symbol>
    <symbol id="filter" viewBox="0 0 24 24"><path d="M22 3H2l8 9.5V19l4 2v-8.5z"/></symbol>
    <symbol id="plus" viewBox="0 0 24 24"><path d="M12 5v14M5 12h14"/></symbol>
    <symbol id="x" viewBox="0 0 24 24"><path d="M18 6 6 18M6 6l12 12"/></symbol>
    <symbol id="chevron-left" viewBox="0 0 24 24"><path d="m15 18-6-6 6-6"/></symbol>
    <symbol id="chevron-right" viewBox="0 0 24 24"><path d="m9 18 6-6-6-6"/></symbol>
    <symbol id="chevron-down" viewBox="0 0 24 24"><path d="m6 9 6 6 6-6"/></symbol>
    <symbol id="calendar" viewBox="0 0 24 24"><path d="M8 2v4M16 2v4M3 10h18"/><rect x="3" y="4" width="18" height="18" rx="2"/></symbol>
    <symbol id="home" viewBox="0 0 24 24"><path d="m3 11 9-8 9 8"/><path d="M5 10v11h14V10M9 21v-7h6v7"/></symbol>
    <symbol id="user" viewBox="0 0 24 24"><circle cx="12" cy="8" r="4"/><path d="M4 21a8 8 0 0 1 16 0"/></symbol>
    <symbol id="users" viewBox="0 0 24 24"><path d="M16 21v-2a4 4 0 0 0-4-4H6a4 4 0 0 0-4 4v2"/><circle cx="9" cy="7" r="4"/><path d="M22 21v-2a4 4 0 0 0-3-3.87M16 3.13a4 4 0 0 1 0 7.75"/></symbol>
    <symbol id="package" viewBox="0 0 24 24"><path d="m16.5 9.4-9-5.2M21 16V8a2 2 0 0 0-1-1.73l-7-4a2 2 0 0 0-2 0l-7 4A2 2 0 0 0 3 8v8a2 2 0 0 0 1 1.73l7 4a2 2 0 0 0 2 0l7-4A2 2 0 0 0 21 16Z"/><path d="M3.3 7 12 12l8.7-5M12 22V12"/></symbol>
    <symbol id="shopping-cart" viewBox="0 0 24 24"><circle cx="9" cy="20" r="1"/><circle cx="20" cy="20" r="1"/><path d="M1 1h4l2.7 13.4a2 2 0 0 0 2 1.6h9.7a2 2 0 0 0 2-1.6L23 6H6"/></symbol>
    <symbol id="shopping-bag" viewBox="0 0 24 24"><path d="M6 2 3 6v14a2 2 0 0 0 2 2h14a2 2 0 0 0 2-2V6l-3-4zM3 6h18M16 10a4 4 0 0 1-8 0"/></symbol>
    <symbol id="dollar" viewBox="0 0 24 24"><path d="M12 2v20M17 5H9.5a3.5 3.5 0 0 0 0 7h5a3.5 3.5 0 0 1 0 7H6"/></symbol>
    <symbol id="credit-card" viewBox="0 0 24 24"><rect x="2" y="5" width="20" height="14" rx="2"/><path d="M2 10h20"/></symbol>
    <symbol id="clock" viewBox="0 0 24 24"><circle cx="12" cy="12" r="10"/><path d="M12 6v6l4 2"/></symbol>
    <symbol id="target" viewBox="0 0 24 24"><circle cx="12" cy="12" r="10"/><circle cx="12" cy="12" r="6"/><circle cx="12" cy="12" r="2"/></symbol>
    <symbol id="settings" viewBox="0 0 24 24"><circle cx="12" cy="12" r="3"/><path d="M19.4 15a1.65 1.65 0 0 0 .33 1.82l.06.06-2.83 2.83-.06-.06a1.65 1.65 0 0 0-1.82-.33 1.65 1.65 0 0 0-1 1.51V21h-4v-.09A1.65 1.65 0 0 0 9 19.4a1.65 1.65 0 0 0-1.82.33l-.06.06-2.83-2.83.06-.06A1.65 1.65 0 0 0 4.6 15a1.65 1.65 0 0 0-1.51-1H3v-4h.09A1.65 1.65 0 0 0 4.6 9a1.65 1.65 0 0 0-.33-1.82l-.06-.06 2.83-2.83.06.06A1.65 1.65 0 0 0 9 4.6a1.65 1.65 0 0 0 1-1.51V3h4v.09A1.65 1.65 0 0 0 15 4.6a1.65 1.65 0 0 0 1.82-.33l.06-.06 2.83 2.83-.06.06A1.65 1.65 0 0 0 19.4 9a1.65 1.65 0 0 0 1.51 1H21v4h-.09A1.65 1.65 0 0 0 19.4 15Z"/></symbol>
    <symbol id="bell" viewBox="0 0 24 24"><path d="M18 8a6 6 0 0 0-12 0c0 7-3 7-3 9h18c0-2-3-2-3-9M13.73 21a2 2 0 0 1-3.46 0"/></symbol>
    <symbol id="megaphone" viewBox="0 0 24 24"><path d="m3 11 18-5v12L3 14zM11.6 16.4 13 21H8l-1.5-6"/></symbol>
    <symbol id="info" viewBox="0 0 24 24"><circle cx="12" cy="12" r="10"/><path d="M12 16v-4M12 8h.01"/></symbol>
    <symbol id="log-out" viewBox="0 0 24 24"><path d="M9 21H5a2 2 0 0 1-2-2V5a2 2 0 0 1 2-2h4M16 17l5-5-5-5M21 12H9"/></symbol>
    <symbol id="mail" viewBox="0 0 24 24"><rect x="3" y="5" width="18" height="14" rx="2"/><path d="m3 7 9 6 9-6"/></symbol>
    <symbol id="phone" viewBox="0 0 24 24"><path d="M22 16.92v3a2 2 0 0 1-2.18 2 19.8 19.8 0 0 1-8.63-3.07 19.5 19.5 0 0 1-6-6A19.8 19.8 0 0 1 2.12 4.18 2 2 0 0 1 4.11 2h3a2 2 0 0 1 2 1.72c.12.9.33 1.78.62 2.64a2 2 0 0 1-.45 2.11L8.01 9.74a16 16 0 0 0 6 6l1.27-1.27a2 2 0 0 1 2.11-.45c.86.29 1.74.5 2.64.62A2 2 0 0 1 22 16.92Z"/></symbol>
    <symbol id="eye" viewBox="0 0 24 24"><path d="M2 12s3.5-7 10-7 10 7 10 7-3.5 7-10 7S2 12 2 12Z"/><circle cx="12" cy="12" r="3"/></symbol>
    <symbol id="eye-off" viewBox="0 0 24 24"><path d="m3 3 18 18M10.6 10.6A2 2 0 0 0 13.4 13.4M9.9 4.2A10.8 10.8 0 0 1 12 4c6.5 0 10 8 10 8a18.3 18.3 0 0 1-3.1 4.2M6.6 6.6C3.7 8.5 2 12 2 12s3.5 8 10 8a10.8 10.8 0 0 0 4.2-.9"/></symbol>
    <symbol id="map-pin" viewBox="0 0 24 24"><path d="M20 10c0 5-8 12-8 12S4 15 4 10a8 8 0 1 1 16 0Z"/><circle cx="12" cy="10" r="3"/></symbol>
    <symbol id="message-circle" viewBox="0 0 24 24"><path d="M21 15a4 4 0 0 1-4 4H8l-5 3 1.7-5.1A8 8 0 1 1 21 15Z"/></symbol>
    <symbol id="more" viewBox="0 0 24 24"><circle cx="12" cy="5" r="1"/><circle cx="12" cy="12" r="1"/><circle cx="12" cy="19" r="1"/></symbol>
    <symbol id="folder" viewBox="0 0 24 24"><path d="M3 5a2 2 0 0 1 2-2h5l2 3h7a2 2 0 0 1 2 2v10a2 2 0 0 1-2 2H5a2 2 0 0 1-2-2z"/></symbol>
    <symbol id="lock" viewBox="0 0 24 24"><rect x="3" y="11" width="18" height="10" rx="2"/><path d="M7 11V7a5 5 0 0 1 10 0v4"/></symbol>
    <symbol id="save" viewBox="0 0 24 24"><path d="M19 21H5a2 2 0 0 1-2-2V5a2 2 0 0 1 2-2h11l5 5v11a2 2 0 0 1-2 2Z"/><path d="M17 21v-8H7v8M7 3v5h8"/></symbol>
  </defs>
</svg>
